<?xml version="1.0" encoding="UTF-8"?>
<svg width="140px" height="42px" viewBox="0 0 140 42" version="1.1" xmlns="http://www.w3.org/2000/svg" xmlns:xlink="http://www.w3.org/1999/xlink">
    <!-- Generator: Sketch 52.2 (67145) - http://www.bohemiancoding.com/sketch -->
    <title>App Store</title>
    <desc>Created with Sketch.</desc>
    <g id="Symbols" stroke="none" stroke-width="1" fill="none" fill-rule="evenodd">
        <g id="ZSSK/FOOTER/NEW-Grey" transform="translate(-1435.000000, -341.000000)">
            <g id="ZSSK/FOOTER/NEW">
                <g id="Kontaktné-centrum" transform="translate(1316.000000, 292.000000)">
                    <g id="App-Store" transform="translate(120.000000, 50.000000)">
                        <g id="Group">
                            <g fill="#F8F8FA" fill-rule="nonzero" id="Shape" stroke="#DFDFE1">
                                <path d="M126.654985,0.00013 L10.964882,0.00013 C10.543177,0.00013 10.126532,0.00013 9.7059425,0.00213 C9.35387,0.00413 9.0046035,0.00994 8.64915,0.01483 C7.87694073,0.0227318036 7.10654744,0.0818062599 6.344665,0.19154 C5.58385269,0.303662628 4.84687339,0.51504574 4.158653,0.81854 C3.47127432,1.12460171 2.84319677,1.52229753 2.2972055,1.9972 C1.74834787,2.47076699 1.29083266,3.01814638 0.9422525,3.61829 C0.592710278,4.21723912 0.350336573,4.8590683 0.2235025,5.52161 C0.0954625823,6.18331491 0.0265631377,6.85265054 0.0174225,7.52361 C0.0067505,7.83021 0.0056235,8.13783 0,8.44447 L0,31.55873 C0.0056235,31.86923 0.0067505,32.17003 0.0174225,32.48063 C0.0265659407,33.1515562 0.0954653865,33.8208584 0.2235025,34.48253 C0.349986346,35.145459 0.592374382,35.7876566 0.9422525,36.38683 C1.29067438,36.9850329 1.74825394,37.5301962 2.2972055,38.00113 C2.84112655,38.478144 3.46961007,38.8761104 4.158653,39.17983 C4.84686817,39.4841365 5.58376801,39.6967778 6.344665,39.81063 C7.10667696,39.9194847 7.87699102,39.9785832 8.64915,39.98743 C9.0046035,39.99423 9.35387,39.99813 9.7059425,39.99813 C10.1265205,40.00013 10.5432,40.00013 10.964882,40.00013 L126.654985,40.00013 C127.068295,40.00013 127.488275,40.00013 127.901585,39.99813 C128.25199,39.99813 128.611365,39.99423 128.96177,39.98743 C129.73247,39.9790537 130.501333,39.9199515 131.26177,39.81063 C132.025122,39.6959764 132.764664,39.4833914 133.4562,39.17983 C134.144622,38.8759346 134.772525,38.4779791 135.31598,38.00113 C135.863516,37.5283518 136.322072,36.9835873 136.67482,36.38683 C137.022073,35.7872208 137.262154,35.1450745 137.386785,34.48253 C137.515028,33.8207676 137.586372,33.1516143 137.600225,32.48063 C137.60471,32.17003 137.60471,31.86923 137.60471,31.55873 C137.61368,31.19543 137.61368,30.83413 137.61368,30.46493 L137.61368,9.53626 C137.61368,9.17005 137.61368,8.80677 137.60471,8.44447 C137.60471,8.13783 137.60471,7.83021 137.600225,7.52357 C137.586375,6.85255244 137.51503,6.18336567 137.386785,5.52157 C137.261807,4.8594116 137.02174,4.21763328 136.67482,3.61825 C135.964953,2.41532608 134.839309,1.4361554 133.4562,0.81845 C132.764662,0.51569738 132.025041,0.30437041 131.26177,0.19145 C130.501465,0.0812327831 129.732521,0.0221377649 128.96177,0.01469 C128.611365,0.00981 128.25199,0.00395 127.901585,0.002 C127.488275,0 127.068295,0 126.654985,0 L126.654985,0.00013 Z"></path>
                            </g>
                            <g id="_Group_" transform="translate(10.000000, 6.000000)">
                                <g id="_Group_2" transform="translate(0.000000, 2.000000)" fill="#333333" fill-rule="nonzero">
                                    <g id="_Group_3">
                                        <path d="M15.3876575,11.5801202 C15.4103877,9.81596676 16.3352575,8.18642614 17.8382375,7.26241025 C16.8857679,5.90211625 15.347637,5.07058077 13.6878475,5.01865025 C11.9416075,4.83535025 10.2487175,6.06357025 9.35884746,6.06357025 C8.45177746,6.06357025 7.08171746,5.03685025 5.60637746,5.06720025 C3.66522659,5.1299153 1.89941743,6.20681755 0.955007459,7.90390025 C-1.05610254,11.3859002 0.444007459,16.5032902 2.37051746,19.3179002 C3.33439746,20.6961302 4.46088746,22.2356402 5.93489746,22.1810502 C7.37729746,22.1212202 7.91600746,21.2612802 9.65709746,21.2612802 C11.3820375,21.2612802 11.8874475,22.1810502 13.3913675,22.1463402 C14.9391375,22.1212202 15.9142875,20.7619902 16.8443675,19.3707102 C17.5369143,18.3886737 18.0698277,17.3033091 18.4233675,16.1548202 C16.5850906,15.3773197 15.3897968,13.5760572 15.3876575,11.5801202 Z" id="_Path_"></path>
                                        <path d="M12.3760762,3.62989 C13.2199872,2.61681521 13.635752,1.31467511 13.5350762,0 C12.2457797,0.135414929 11.0548307,0.751614252 10.1995262,1.72582 C9.35495122,2.68700609 8.92709186,3.94449544 9.01018622,5.22132 C10.3167645,5.23476935 11.5573323,4.64821519 12.3760762,3.62989 Z" id="_Path_2"></path>
                                    </g>
                                </g>
                                <g id="Group-7" transform="translate(27.000000, 0.000000)">
                                    <g id="Group" transform="translate(0.000000, 12.000000)" fill="#333333" fill-rule="nonzero">
                                        <path d="M7.875,9.06155 L3.1416,9.06155 L2.00488,12.418 L0,12.418 L4.4834,0 L6.5664,0 L11.0498,12.418 L9.01074,12.418 L7.875,9.06155 Z M3.63184,7.51272 L7.38384,7.51272 L5.53422,2.06545 L5.48242,2.06545 L3.63184,7.51272 Z" id="Shape"></path>
                                        <path d="M21.52835,7.62375584 C21.52835,10.4372358 20.02249,12.2448458 17.75003,12.2448458 C16.5754153,12.3062905 15.4689924,11.6910565 14.9014,10.6608458 L14.8584,10.6608458 L14.8584,15.1452258 L13,15.1452258 L13,3.09640584 L14.79883,3.09640584 L14.79883,4.60226584 L14.83301,4.60226584 C15.4258183,3.57851376 16.5334343,2.96354468 17.71582,3.00167584 C20.0137,3.00168584 21.52835,4.81808584 21.52835,7.62375584 Z M19.61819,7.62375584 C19.61819,5.79075584 18.67092,4.58566584 17.22561,4.58566584 C15.80569,4.58566584 14.85061,5.81613584 14.85061,7.62375584 C14.85061,9.44797584 15.80569,10.6696558 17.22561,10.6696558 C18.67093,10.6696558 19.61815,9.47336584 19.61815,7.62375584 L19.61819,7.62375584 Z" id="Shape"></path>
                                        <path d="M31.52884,7.62375584 C31.52884,10.4372358 30.02249,12.2448458 27.75003,12.2448458 C26.5754153,12.3062905 25.4689924,11.6910565 24.9014,10.6608458 L24.8584,10.6608458 L24.8584,15.1452258 L23,15.1452258 L23,3.09640584 L24.79883,3.09640584 L24.79883,4.60226584 L24.83301,4.60226584 C25.4258183,3.57851376 26.5334343,2.96354468 27.71582,3.00167584 C30.01371,3.00168584 31.52884,4.81808584 31.52884,7.62375584 Z M29.6182,7.62375584 C29.6182,5.79075584 28.67093,4.58566584 27.22562,4.58566584 C25.8057,4.58566584 24.85062,5.81613584 24.85062,7.62375584 C24.85062,9.44797584 25.8057,10.6696558 27.22562,10.6696558 C28.67093,10.6696558 29.6182,9.47336584 29.6182,7.62375584 Z" id="Shape"></path>
                                        <path d="M37.90239,9.16509 C38.04009,10.39654 39.23639,11.20509 40.87114,11.20509 C42.43755,11.20509 43.5645,10.3965 43.5645,9.28614 C43.5645,8.32227 42.88481,7.74514 41.27544,7.34962 L39.66607,6.96192 C37.3858,6.41114 36.3272,5.34473 36.3272,3.61426 C36.3272,1.47168 38.19439,0 40.84478,0 C43.46978,0 45.26861,1.47168 45.32916,3.61426 L43.45316,3.61426 C43.34086,2.375 42.31644,1.62696 40.81937,1.62696 C39.3223,1.62696 38.29789,2.3838 38.29789,3.48536 C38.29789,4.36329 38.95219,4.87989 40.55277,5.27536 L41.92093,5.6113 C44.46878,6.21384 45.5264,7.2373 45.5264,9.05368 C45.5264,11.37692 43.67679,12.832 40.7334,12.832 C37.97949,12.832 36.12012,11.4111 36,9.165 L37.90239,9.16509 Z" id="Shape"></path>
                                        <path d="M49.18359,1 L49.18359,3.14258 L50.90527,3.14258 L50.90527,4.61426 L49.18359,4.61426 L49.18359,9.60547 C49.18359,10.38086 49.52832,10.74219 50.28515,10.74219 C50.4895414,10.7386259 50.6936021,10.7242726 50.89648,10.69919 L50.89648,12.16208 C50.5562083,12.2256596 50.2103508,12.2544545 49.86425,12.24802 C48.03125,12.24802 47.3164,11.55954 47.3164,9.80368 L47.3164,4.61426 L46,4.61426 L46,3.14258 L47.31638,3.14258 L47.31638,1 L49.18359,1 Z" id="Shape"></path>
                                        <path d="M52,7.63867 C52,4.79004 53.67773,3 56.29395,3 C58.91895,3 60.58887,4.79 60.58887,7.63867 C60.58887,10.49512 58.92774,12.27734 56.29395,12.27734 C53.66112,12.27734 52,10.49511 52,7.63867 Z M58.69531,7.63867 C58.69531,5.68457 57.7998,4.53125 56.29394,4.53125 C54.78808,4.53125 53.89257,5.69336 53.89257,7.63867 C53.89257,9.60058 54.78808,10.74512 56.29394,10.74512 C57.7998,10.74512 58.6953,9.60058 58.6953,7.63867 L58.69531,7.63867 Z" id="Shape"></path>
                                        <path d="M62.00001,3.09632946 L63.77247,3.09632946 L63.77247,4.63732946 L63.81547,4.63732946 C64.062646,3.64531787 64.9716026,2.96258102 65.9932,3.00158946 C66.207364,3.00084169 66.4209372,3.02410021 66.62992,3.07092946 L66.62992,4.80920946 C66.359551,4.72659278 66.0775096,4.68866075 65.79492,4.69690946 C65.2485682,4.6747449 64.7198209,4.89248419 64.3475115,5.29295544 C63.975202,5.69342668 63.7965266,6.23662021 63.8584,6.77990946 L63.8584,12.1500295 L62,12.1500295 L62.00001,3.09632946 Z" id="Shape"></path>
                                        <path d="M75.16699,9.50586 C74.91699,11.14941 73.3164,12.27734 71.26855,12.27734 C68.63476,12.27734 67,10.51269 67,7.68164 C67,4.8418 68.64355,3 71.19043,3 C73.69531,3 75.27051,4.7207 75.27051,7.46582 L75.27051,8.10254 L68.87598,8.10254 L68.87598,8.21484 C68.8162774,8.88887162 69.0490216,9.55606944 69.5150099,10.0467199 C69.9809983,10.5373704 70.6353175,10.8041833 71.31153,10.77929 C72.2133723,10.8637896 73.0636331,10.3459277 73.40235,9.50585 L75.16699,9.50586 Z M68.8847524,6.80372 L73.41113,6.80371 C73.4448555,6.19804749 73.2243865,5.60577308 72.8028401,5.16958155 C72.3812936,4.73339001 71.7968908,4.49283041 71.19043,4.50586 C70.5791718,4.50221223 69.9917807,4.74288463 69.5588155,5.17438324 C69.1258503,5.60588186 68.8831863,6.19245292 68.8847524,6.80372 Z" id="Shape"></path>
                                    </g>
                                    <text id="Stiahnuť-na" font-family="Helvetica" font-size="8" font-weight="normal" fill="#000000">
                                        <tspan x="1" y="8">Stiahnuť na</tspan>
                                    </text>
                                </g>
                            </g>
                        </g>
                    </g>
                </g>
            </g>
        </g>
    </g>
</svg>