<?xml version="1.0" encoding="UTF-8"?>
<svg width="140px" height="42px" viewBox="0 0 140 42" version="1.1" xmlns="http://www.w3.org/2000/svg" xmlns:xlink="http://www.w3.org/1999/xlink">
    <!-- Generator: Sketch 52.2 (67145) - http://www.bohemiancoding.com/sketch -->
    <title>Google Play</title>
    <desc>Created with Sketch.</desc>
    <defs>
        <linearGradient x1="91.4895098%" y1="4.9604069%" x2="-38.3173161%" y2="71.909245%" id="linearGradient-1">
            <stop stop-color="#00A0FF" offset="0%"></stop>
            <stop stop-color="#00A1FF" offset="0.66%"></stop>
            <stop stop-color="#00BEFF" offset="26.01%"></stop>
            <stop stop-color="#00D2FF" offset="51.22%"></stop>
            <stop stop-color="#00DFFF" offset="76.04%"></stop>
            <stop stop-color="#00E3FF" offset="100%"></stop>
        </linearGradient>
        <linearGradient x1="107.585647%" y1="50.0163647%" x2="-130.492257%" y2="50.0163647%" id="linearGradient-2">
            <stop stop-color="#FFE000" offset="0%"></stop>
            <stop stop-color="#FFBD00" offset="40.87%"></stop>
            <stop stop-color="#FFA500" offset="77.54%"></stop>
            <stop stop-color="#FF9C00" offset="100%"></stop>
        </linearGradient>
        <linearGradient x1="86.237735%" y1="117.851014%" x2="-50.1313759%" y2="294.785269%" id="linearGradient-3">
            <stop stop-color="#FF3A44" offset="0%"></stop>
            <stop stop-color="#C31162" offset="100%"></stop>
        </linearGradient>
        <linearGradient x1="-18.8012883%" y1="-154.171052%" x2="42.0936259%" y2="-75.1365546%" id="linearGradient-4">
            <stop stop-color="#32A071" offset="0%"></stop>
            <stop stop-color="#2DA771" offset="6.85%"></stop>
            <stop stop-color="#15CF74" offset="47.62%"></stop>
            <stop stop-color="#06E775" offset="80.09%"></stop>
            <stop stop-color="#00F076" offset="100%"></stop>
        </linearGradient>
    </defs>
    <g id="Symbols" stroke="none" stroke-width="1" fill="none" fill-rule="evenodd">
        <g id="ZSSK/FOOTER/NEW-Grey" transform="translate(-1435.000000, -391.000000)">
            <g id="ZSSK/FOOTER/NEW">
                <g id="Kontaktné-centrum" transform="translate(1316.000000, 292.000000)">
                    <g id="Google-Play" transform="translate(120.000000, 100.000000)">
                        <g id="Group">
                            <g>
                                <path d="M127.010541,0.00013 L10.9956634,0.00013 C10.5727746,0.00013 10.15496,0.00013 9.73318975,0.00213 C9.38012889,0.00413 9.0298819,0.00994 8.67343055,0.01483 C7.89905347,0.0227318036 7.12649748,0.0818062599 6.36247622,0.19154 C5.59952811,0.303662628 4.8604799,0.51504574 4.17032748,0.81854 C3.48101915,1.12460171 2.85117841,1.52229753 2.30365439,1.9972 C1.75325597,2.47076699 1.29445638,3.01814638 0.944897662,3.61829 C0.594374179,4.21723912 0.351320064,4.8590683 0.224129933,5.52161 C0.0957305721,6.18331491 0.0266377078,6.85265054 0.0174714098,7.52361 C0.00676945051,7.83021 0.00563928671,8.13783 0,8.44447 L0,31.55873 C0.00563928671,31.86923 0.00676945051,32.17003 0.0174714098,32.48063 C0.0266405187,33.1515562 0.0957333841,33.8208584 0.224129933,34.48253 C0.350968854,35.145459 0.59403734,35.7876566 0.944897662,36.38683 C1.29429766,36.9850329 1.75316177,37.5301962 2.30365439,38.00113 C2.84910237,38.478144 3.47935022,38.8761104 4.17032748,39.17983 C4.86047466,39.4841365 5.59944319,39.6967778 6.36247622,39.81063 C7.12662736,39.9194847 7.8991039,39.9785832 8.67343055,39.98743 C9.0298819,39.99423 9.38012889,39.99813 9.73318975,39.99813 C10.1549484,40.00013 10.5727977,40.00013 10.9956634,40.00013 L127.010541,40.00013 C127.425011,40.00013 127.84617,40.00013 128.26064,39.99813 C128.612029,39.99813 128.972413,39.99423 129.323802,39.98743 C130.096664,39.9790537 130.867687,39.9199515 131.630258,39.81063 C132.395753,39.6959764 133.137371,39.4833914 133.830849,39.17983 C134.521203,38.8759346 135.150869,38.4779791 135.69585,38.00113 C136.244922,37.5283518 136.704766,36.9835873 137.058504,36.38683 C137.406732,35.7872208 137.647487,35.1450745 137.772468,34.48253 C137.90107,33.8207676 137.972615,33.1516143 137.986507,32.48063 C137.991005,32.17003 137.991005,31.86923 137.991005,31.55873 C138,31.19543 138,30.83413 138,30.46493 L138,9.53626 C138,9.17005 138,8.80677 137.991005,8.44447 C137.991005,8.13783 137.991005,7.83021 137.986507,7.52357 C137.972618,6.85255244 137.901073,6.18336567 137.772468,5.52157 C137.647138,4.8594116 137.406398,4.21763328 137.058504,3.61825 C136.346644,2.41532608 135.21784,1.4361554 133.830849,0.81845 C133.137369,0.51569738 132.395672,0.30437041 131.630258,0.19145 C130.867819,0.0812327831 130.096716,0.0221377649 129.323802,0.01469 C128.972413,0.00981 128.612029,0.00395 128.26064,0.002 C127.84617,0 127.425011,0 127.010541,0 L127.010541,0.00013 Z" id="Shape" stroke="#DFDFE1" fill="#F8F8FA" fill-rule="nonzero"></path>
                                <g id="Group-4" transform="translate(37.000000, 6.000000)" fill="#333333" font-family="Helvetica" font-weight="normal">
                                    <text id="Stiahnuť-na" font-size="8">
                                        <tspan x="0" y="8">Stiahnuť na</tspan>
                                    </text>
                                    <text id="Google-Play" font-size="18" letter-spacing="-0.100000001">
                                        <tspan x="0" y="25">Google Play</tspan>
                                    </text>
                                </g>
                                <g transform="translate(9.000000, 8.000000)">
                                    <g id="g48" transform="translate(6.065131, 11.833874) scale(-1, 1) rotate(-180.000000) translate(-6.065131, -11.833874) translate(0.065131, 0.833874)" fill="url(#linearGradient-1)" fill-rule="nonzero">
                                        <path d="M1.32943575,21.7731384 C1.07950826,21.515534 0.934869375,21.1144668 0.934869375,20.5950692 L0.934869375,2.06849098 C0.934869375,1.54909335 1.07950826,1.14802623 1.32943575,0.890421767 L1.39111998,0.833874444 L11.9348694,11.2113552 L11.9348694,11.4563936 L1.39111998,21.8338744 L1.32943575,21.7731384 Z" id="path64"></path>
                                    </g>
                                    <g id="g66" transform="translate(15.980014, 11.189698) scale(-1, 1) rotate(-180.000000) translate(-15.980014, -11.189698) translate(10.980014, 7.189698)" fill="url(#linearGradient-2)" fill-rule="nonzero">
                                        <path d="M3.67389293,0.189697778 L0.0199864625,3.57003092 L0.0199864625,3.80936464 L3.67832056,7.18969778 L3.76023183,7.14571765 L8.09267348,4.86795611 C9.32909079,4.2215505 9.32909079,3.15784506 8.09267348,2.50734827 L3.76023183,0.233677906 L3.67389293,0.189697778 Z" id="path78"></path>
                                    </g>
                                    <g id="g80" transform="translate(7.761938, 16.722763) scale(-1, 1) rotate(-180.000000) translate(-7.761938, -16.722763) translate(0.261938, 10.722763)" fill="url(#linearGradient-3)" fill-rule="nonzero">
                                        <path d="M14.7380618,8.11063649 L11.1948067,11.7227633 L0.738061837,1.06169763 C1.12709637,0.64479042 1.76150577,0.594547756 2.48294986,1.01145497 L14.7380618,8.11063649" id="path88"></path>
                                    </g>
                                    <g id="g90" transform="translate(8.261938, 6.385089) scale(-1, 1) rotate(-180.000000) translate(-8.261938, -6.385089) translate(1.261938, 0.885089)" fill="url(#linearGradient-4)" fill-rule="nonzero">
                                        <path d="M14,3.61332145 L1.74488802,10.7148508 C1.02344394,11.1276185 0.389034529,11.0773592 0,10.6603141 L10.4567448,0 L14,3.61332145 Z" id="path104"></path>
                                    </g>
                                    <rect id="Rectangle" fill="#000000" style="mix-blend-mode: color;" x="1" y="0" width="20" height="23"></rect>
                                </g>
                            </g>
                        </g>
                    </g>
                </g>
            </g>
        </g>
    </g>
</svg>