<?xml version="1.0" standalone="no"?>
<!DOCTYPE svg PUBLIC "-//W3C//DTD SVG 20010904//EN"
 "http://www.w3.org/TR/2001/REC-SVG-20010904/DTD/svg10.dtd">
<svg version="1.0" xmlns="http://www.w3.org/2000/svg"
 width="1181.000000pt" height="862.000000pt" viewBox="0 0 1181.000000 862.000000"
 preserveAspectRatio="xMidYMid meet">

<g transform="translate(0.000000,862.000000) scale(0.100000,-0.100000)"
fill="#FFFFFF" stroke="none">
<path d="M6868 7190 c-308 -20 -631 -88 -923 -196 -190 -70 -477 -217 -656
-336 l-154 -103 1095 -6 c1128 -6 1123 -6 1353 -49 490 -93 965 -347 1326
-709 393 -394 641 -889 728 -1451 25 -165 25 -567 -1 -735 -24 -156 -78 -372
-128 -510 -92 -257 -271 -566 -446 -775 -164 -196 -404 -404 -622 -540 -249
-156 -579 -283 -880 -340 -95 -18 -94 -18 714 -19 l809 -1 86 72 c457 384 824
944 1001 1529 93 308 133 583 134 924 1 318 -25 533 -99 819 -339 1313 -1463
2280 -2810 2415 -151 15 -385 20 -527 11z"/>
<path d="M1565 6085 c6 -2 219 -47 475 -100 647 -134 2173 -454 2186 -459 7
-3 -15 -58 -56 -139 -163 -326 -264 -657 -316 -1042 -25 -182 -25 -598 0 -780
47 -344 125 -626 257 -923 186 -419 471 -809 811 -1107 l132 -115 825 1 826 0
-135 28 c-499 103 -940 340 -1300 701 -406 405 -651 901 -736 1485 -27 181
-24 524 5 714 53 345 169 671 334 937 l57 92 37 -8 c62 -14 2236 -466 3048
-634 413 -86 761 -158 775 -161 21 -5 17 2 -25 42 -152 146 -302 320 -585 678
-392 498 -567 674 -758 763 l-57 27 -2905 2 c-1598 1 -2900 0 -2895 -2z"/>
</g>
</svg>
