<?xml version="1.0" encoding="UTF-8" standalone="no"?>
<!DOCTYPE svg PUBLIC "-//W3C//DTD SVG 1.1//EN"
        "http://www.w3.org/Graphics/SVG/1.1/DTD/svg11.dtd">


<!-- Page 1 -->
<svg x="0" y="0" width="1429" height="1429" viewBox="0 0 1429 1429" version="1.1" xmlns="http://www.w3.org/2000/svg"
     style="display: block;margin-left: auto;margin-right: auto;">
    <defs>
        <clipPath id="c_1"><path d="M0,0H1429V1429H0Z" /></clipPath>
    </defs>
    <g clip-path="url(#c_1)">
        <path d="M0,0
L0,1429
L1429,1429
L1429,0 Z "
              fill="#FFFFFF" stroke="none" />
        <path d="M533.5,170.1h40.1V130H493.4v80.2h40.1Z" class="g0_1" />
        <path d="M814.2,210.2H934.6V170.1h40.1V130H814.2v40.1H774.1V130H693.9v40.1H734v40.1h40.1Z" class="g0_1" />
        <path d="M533.5,290.4h40.1v40.1h40.1v80.2h40.1V370.6h40.1v40.1H734V330.5H693.9V290.4h80.2V250.3H734V210.2H693.9v40.1H653.8V170.1H573.6v40.1H533.5v40.1H493.4V210.2H453.3v80.2h40.1Z" class="g0_1" />
        <path d="M854.4,250.3H814.2v40.1h40.2V250.3Z" class="g0_1" />
        <path d="M814.2,290.4H774.1v40.1h40.1V290.4Z" class="g0_1" />
        <path d="M894.5,330.5h40.1V250.3H894.5v40.1H854.4v40.1Z" class="g0_1" />
        <path d="M493.4,370.6H453.3v40.1h40.1V370.6Z" class="g0_1" />
        <path d="M533.5,410.7h40.1V370.6H533.5v40.1Z" class="g0_1" />
        <path d="M774.1,410.7h40.1V370.6H774.1v40.1Z" class="g0_1" />
        <path d="M934.6,410.7h40.1V370.6H934.6v40.1Z" class="g0_1" />
        <path d="M573.6,450.8H533.5v40.1h40.1V531h40.1V490.9h80.2V450.8H613.7V410.7H573.6Z" class="g0_1" />
        <path d="M894.5,450.8V370.6H854.4v40.1H814.2v40.1h40.2Z" class="g0_1" />
        <path d="M814.2,450.8H774.1v40.1h40.1V450.8Z" class="g0_1" />
        <path d="M734,531h40.1V490.9H693.9V531Z" class="g0_1" />
        <path d="M854.4,531h80.2V490.9H814.2V531Z" class="g0_1" />
        <path d="M453.3,571.1H413.2v40.1h40.1v40.1H413.2v40.1h80.2V651.3h40.1V611.2H493.4V571.1h40.1V531H493.4V490.9H453.3V450.8H373.1v40.1h40.1V531h40.1Z" class="g0_1" />
        <path d="M1054.9,531h-40.1v40.1h40.1V531Z" class="g0_1" />
        <path d="M373.1,611.2V571.1h40.1V531H333V450.8H252.8v40.1h40.1V611.2H333Z" class="g0_1" />
        <path d="M1255.4,611.2h40.1V571.1h-40.1v40.1Z" class="g0_1" />
        <path d="M373.1,651.3h40.1V611.2H373.1v40.1Z" class="g0_1" />
        <path d="M1215.3,651.3h-40.1v40.1h80.2v40.1h40.1V651.3h-40.1V611.2h-40.1Z" class="g0_1" />
        <path d="M974.7,651.3h40.1v40.1h40.1V651.3H1095V611.2h40.1v40.1h40.1V571.1h-40.1V531h120.3V490.9h-40.1V450.8h-80.2v40.1h-80.2V531H1095v40.1h-40.1v40.1h-40.1V571.1H974.7v40.1H934.6V571.1H894.5v80.2h40.1v40.1h40.1Z" class="g0_1" />
        <path d="M1095,691.4h40.1V651.3H1095v40.1Z" class="g0_1" />
        <path d="M292.9,731.5H333V691.4H292.9v40.1Z" class="g0_1" />
        <path d="M373.1,731.5h40.1V691.4H373.1v40.1Z" class="g0_1" />
        <path d="M533.5,691.4H493.4v40.1h40.1V691.4Z" class="g0_1" />
        <path d="M1014.8,731.5V691.4H974.7v40.1H934.6V691.4H894.5v80.2h160.4V731.5Z" class="g0_1" />
        <path d="M1175.2,731.5V691.4h-40.1V811.7h40.1V771.6h80.2V731.5h-40.1Z" class="g0_1" />
        <path d="M413.2,811.7h40.1V771.6h40.1V731.5H413.2v40.1H373.1V731.5H333V851.8h40.1V811.7Z" class="g0_1" />
        <path d="M1054.9,811.7H1095V771.6h-40.1v40.1Z" class="g0_1" />
        <path d="M1295.5,771.6h-40.1v40.1h40.1V771.6Z" class="g0_1" />
        <path d="M252.8,811.7h40.1V731.5H252.8V691.4h40.1V611.2H212.7V490.9H132.5V691.4h40.1V651.3h40.1v40.1H172.6v40.1h40.1v40.1H172.6v40.1h40.1v40.1H172.6V811.7H132.5V972.2h80.2V891.9h40.1V851.8Z" class="g0_1" />
        <path d="M1095,851.8h40.1V811.7H1095v40.1Z" class="g0_1" />
        <path d="M292.9,891.9H252.8v80.3h40.1V932.1H333V851.8H292.9Z" class="g0_1" />
        <path d="M974.7,891.9V811.7H894.5v80.2h40.1Z" class="g0_1" />
        <path d="M1054.9,891.9H1095V851.8h-40.1v40.1Z" class="g0_1" />
        <path d="M573.6,891.9H533.5V811.7H493.4v40.1H373.1v40.1h40.1v40.2H533.5v40.1h40.1V932.1Z" class="g0_1" />
        <path d="M693.9,891.9H653.8v40.2H734V891.9Z" class="g0_1" />
        <path d="M373.1,972.2h40.1V932.1H373.1v40.1Z" class="g0_1" />
        <path d="M734,972.2h40.1V932.1H734v40.1Z" class="g0_1" />
        <path d="M1095,1052.4v40.1H974.7V972.2H1095v40.1ZM1054.9,932.1V891.9H974.7v40.2H934.6v40.1H894.5V891.9H774.1v40.2h40.1v40.1h40.2v40.1h40.1v80.2H814.2V972.2H774.1v40.1H693.9V972.2H653.8v80.2H734v40.1h40.1v40.1H734v-40.1H693.9v80.2H734v40.1H693.9v40.1H814.2v-40.1H774.1v-40.1h80.3v-40.1h80.2v40.1h80.2v-40.1h40.1v40.1H1095v-40.1h40.1v-40.1h40.1v-40.1h-40.1v-40.1h40.1v40.1h40.1V932.1h40.1v40.1h40.1V851.8h-40.1v40.1h-40.1V851.8h-40.1v80.3h-40.1V891.9H1095v40.2Z" class="g0_1" />
        <path d="M613.7,972.2H573.6v40.1h40.1V972.2Z" class="g0_1" />
        <path d="M493.4,1012.3V972.2H453.3v80.2h40.1Z" class="g0_1" />
        <path d="M533.5,1052.4h40.1v-40.1H533.5v40.1Z" class="g0_1" />
        <path d="M1014.8,1052.4h40.1v-40.1h-40.1v40.1Z" class="g0_1" />
        <path d="M573.6,1092.5h40.1v-40.1H573.6v40.1Z" class="g0_1" />
        <path d="M1255.4,1092.5h40.1v-40.1h-40.1v40.1Z" class="g0_1" />
        <path d="M493.4,1092.5H453.3v80.2h40.1v-40.1h80.2v-40.1H533.5Z" class="g0_1" />
        <path d="M613.7,1132.6h40.1v-40.1H613.7v40.1Z" class="g0_1" />
        <path d="M1175.2,1132.6h-40.1v40.1h40.1v-40.1Z" class="g0_1" />
        <path d="M894.5,1212.8h40.1v-40.1H894.5v40.1Z" class="g0_1" />
        <path d="M493.4,1252.9V1293h40.1v-80.2h80.2V1293h40.1V1172.7H493.4v40.1Z" class="g0_1" />
        <path d="M974.7,1252.9H934.6V1293h80.2v-80.2H974.7Z" class="g0_1" />
        <path d="M1135.1,1212.8v-40.1H1095v80.2h-40.1V1293h120.3v-40.1h40.1v-40.1h40.1v40.1h40.1v-80.2h-40.1v-40.1h-40.1v40.1h-40.1v40.1Z" class="g0_1" />
        <path d="M854.4,1252.9H814.2V1293h40.2v-40.1Z" class="g0_1" />
        <path d="M174.6,224.7c0,-9,2.3,-17.6,6.5,-25c4,-7.2,9.6,-13.4,16.4,-18.1c8.7,-6,19.4,-9.5,30.8,-9.5h89.1c29.6,0,53.7,23.6,53.7,52.6v91.2c0,29,-24.1,52.7,-53.7,52.7H228.3c-29.6,0,-53.7,-23.7,-53.7,-52.7Zm53.7,186h89.1c52.8,0,95.8,-42.5,95.8,-94.8V224.7c0,-52.2,-43,-94.7,-95.8,-94.7H228.3c-43.4,0,-80.1,28.7,-91.9,67.8c-1.2,4.1,-2.2,8.3,-2.8,12.5c-.7,4.7,-1.1,9.5,-1.1,14.4v91.2c0,52.3,43,94.8,95.8,94.8Z" class="g0_1" />
        <path d="M1253.4,315.9c0,29,-24.1,52.7,-53.8,52.7h-89c-29.6,0,-53.7,-23.7,-53.7,-52.7V224.7c0,-9,2.3,-17.6,6.5,-25c4,-7.2,9.6,-13.4,16.4,-18.1c8.7,-6,19.3,-9.5,30.8,-9.5h89.1c29.6,0,53.7,23.6,53.7,52.6ZM1199.7,130h-89.1c-43.4,0,-80.1,28.7,-91.9,67.8c-1.2,4.1,-2.2,8.3,-2.8,12.5c-.7,4.7,-1.1,9.5,-1.1,14.4v91.2c0,52.3,43,94.8,95.8,94.8h89.1c52.8,0,95.8,-42.5,95.8,-94.8V224.7c0,-52.2,-43,-94.7,-95.8,-94.7Z" class="g0_1" />
        <path d="M371.1,1198.2c0,29,-24.1,52.6,-53.7,52.6l-44.6,.1l-44.5,-.1c-29.6,0,-53.7,-23.6,-53.7,-52.6V1107c0,-9,2.3,-17.6,6.5,-25c4,-7.2,9.6,-13.4,16.4,-18.1c8.7,-6,19.4,-9.5,30.8,-9.5h89.1c29.6,0,53.7,23.6,53.7,52.6ZM317.4,1012.3H228.3c-43.4,0,-80.1,28.7,-91.9,67.8c-1.2,4.1,-2.2,8.3,-2.8,12.5c-.7,4.7,-1.1,9.5,-1.1,14.4v91.2c0,52.2,43,94.8,95.8,94.8h89.1c52.8,0,95.8,-42.6,95.8,-94.8V1107c0,-52.2,-43,-94.7,-95.8,-94.7Z" class="g0_1" />
        <path d="M245.6,330.5h54.5c18.1,0,32.9,-14.5,32.9,-32.3V242.4c0,-17.8,-14.8,-32.2,-32.9,-32.2H245.6c-7,0,-13.6,2.1,-18.9,5.8c-4.2,2.9,-7.6,6.7,-10.1,11.1c-2.5,4.5,-3.9,9.8,-3.9,15.3v55.8c0,17.8,14.7,32.3,32.9,32.3Z" class="g0_1" />
        <path d="M1182.4,210.2h-54.5c-7,0,-13.6,2.1,-18.9,5.8c-4.2,2.9,-7.6,6.7,-10.1,11.1c-2.5,4.5,-3.9,9.8,-3.9,15.3v55.8c0,17.8,14.7,32.3,32.9,32.3h54.5c18.1,0,32.9,-14.5,32.9,-32.3V242.4c0,-17.8,-14.8,-32.2,-32.9,-32.2Z" class="g0_1" />
        <path d="M300.1,1092.5H245.6c-7,0,-13.6,2.1,-18.9,5.8c-4.2,2.9,-7.6,6.7,-10.1,11.1c-2.5,4.5,-3.9,9.7,-3.9,15.3v55.8c0,17.8,14.7,32.3,32.9,32.3h54.5c18.1,0,32.9,-14.5,32.9,-32.3v-55.8c0,-17.8,-14.8,-32.2,-32.9,-32.2Z" class="g0_1" />
        <path d="M652.6,761.4c-3.1,-3.5,-4.7,-7.8,-4.7,-12.9c0,-4.7,1.6,-8.7,4.7,-12c3.1,-3.3,7.2,-5,12.3,-5c4.6,0,8.7,1.6,12.2,4.7c3.6,3.1,5.3,7.2,5.3,12.3c0,5.1,-1.6,9.4,-5,12.9c-3.3,3.5,-7.5,5.2,-12.5,5.2c-5.1,0,-9.2,-1.7,-12.3,-5.2M647.3,624c0,-2.4,.6,-4.3,1.8,-5.9c.8,-1.9,1.9,-3.5,3.5,-4.7c1.9,-1.5,3.7,-2.7,5.3,-3.5c2.3,-1.1,4.2,-1.7,5.8,-1.7H765.4c2.4,0,4.6,.6,6.8,1.7c2.1,1.2,3.8,2.6,4.9,4.1c1.6,2,3,3.9,4.1,5.9c.8,2.3,1.2,4.5,1.2,6.4v29.8c0,3.9,-1.4,7.5,-4.1,10.8c-2.7,3.3,-6,5.2,-9.9,5.6c-.4,.4,-1,.7,-1.8,.9c-.8,.2,-1.4,.3,-1.8,.3H664.9c-2.4,0,-4.3,-.4,-5.9,-1.2c-1.9,-.8,-3.9,-2,-5.8,-3.5c-1.6,-1.6,-3,-3.2,-4.1,-5c-1.2,-1.7,-1.8,-3.6,-1.8,-5.5Zm42.1,-43.9c0,-.8,.6,-1.6,1.8,-2.3c1.1,-.8,1.9,-1.2,2.3,-1.2h42.1c1.2,0,2.3,.6,3.2,1.8c1,1.1,1.5,2.3,1.5,3.5v13.4c0,.8,-.4,1.6,-1.2,2.3c-.4,.8,-1,1.4,-1.7,1.8c-.4,.4,-1,.8,-1.8,1.2H693.5c-.8,0,-1.6,-.4,-2.6,-1.2c-1,-.8,-1.5,-1.8,-1.5,-2.9Zm87.7,181.3c-3.1,3.5,-7.2,5.2,-12.3,5.2c-5,0,-9.2,-1.7,-12.5,-5.2c-3.3,-3.5,-5,-7.8,-5,-12.9c0,-5.1,1.7,-9.2,5,-12.3c3.3,-3.1,7.5,-4.7,12.5,-4.7c4.7,0,8.7,1.7,12,5c3.4,3.3,5,7.3,5,12c0,5.1,-1.6,9.4,-4.7,12.9M610.5,855.5h26.3l32.7,-47.4h90.1l32.7,47.4h26.3l-45,-67.8c0,-.4,1.3,-1.1,3.8,-2.1c2.6,-.9,4.4,-1.6,5.6,-2c2.3,-1.2,4.7,-2.8,7,-5c2.3,-2.1,4.5,-4.5,6.4,-7c2,-2.5,3.5,-5.2,4.7,-7.9c1.2,-2.7,1.8,-5.5,1.8,-8.2V600.6c0,-3.5,-1.1,-7.2,-3.3,-11.1c-2.1,-3.9,-4.8,-7.4,-8.1,-10.6c-3.4,-3.1,-7.1,-5.6,-11.2,-7.6c-4,-1.9,-7.8,-2.9,-11.4,-2.9H659.6c-3.5,0,-7.3,1.1,-11.4,3.2c-4.1,2.2,-7.8,4.8,-11.1,7.9c-3.3,3.1,-6,6.6,-8.2,10.5c-2.1,3.9,-3.2,7.8,-3.2,11.7V754.3c.4,1.2,.7,2.5,.9,3.9l.3,2c1.9,7.4,5.4,13.1,10.5,17c5.1,3.9,10.7,7,16.9,9.3c0,.4,.1,.6,.3,.6c.2,0,.3,.2,.3,.6l-.6,1.1Z" class="g0_1" />
    </g>
</svg>
