<?xml version="1.0" encoding="UTF-8"?>
<svg width="140" height="42" version="1.1" viewBox="0 0 140 42" xml:space="preserve" xmlns="http://www.w3.org/2000/svg">
    <defs><clipPath id="clipPath18"><path d="m0 792h612v-792h-612z"/></clipPath></defs>
    <g transform="matrix(1.3333 0 0 -1.3333 -117.45 594.68)"><g transform="translate(-29.887,7.4717)"><g clip-path="url(#clipPath18)"><g transform="matrix(.95741 0 0 .94133 5.3781 23.283)"><g transform="matrix(.26484 0 0 .26484 219.21 440.75)" fill="#dfdfe1"><path d="m0 0h-353.12c-1.116 0-2.218 0-3.332-6e-3 -0.932-6e-3 -1.856-0.024-2.797-0.039-2.026-0.05-4.077-0.175-6.1-0.538-2.037-0.356-3.931-0.966-5.786-1.908-1.822-0.933-3.486-2.146-4.927-3.588-1.456-1.442-2.663-3.112-3.586-4.935-0.947-1.852-1.548-3.754-1.903-5.793-0.367-2.016-0.493-4.055-0.545-6.094-0.028-0.933-0.031-1.87-0.046-2.803v-71.947c0.015-0.945 0.018-1.861 0.046-2.807 0.052-2.039 0.178-4.078 0.545-6.093 0.355-2.039 0.956-3.95 1.903-5.797 0.923-1.813 2.13-3.484 3.586-4.913 1.441-1.454 3.105-2.664 4.927-3.588 1.855-0.951 3.749-1.552 5.786-1.921 2.023-0.362 4.074-0.481 6.1-0.538 0.941-0.021 1.865-0.032 2.797-0.032 1.114-6e-3 2.216-6e-3 3.332-6e-3h353.12c1.095 0 2.206 0 3.3 6e-3 0.928 0 1.879 0.011 2.806 0.032 2.04 0.057 4.084 0.176 6.088 0.538 2.039 0.369 3.936 0.97 5.808 1.921 1.819 0.924 3.484 2.134 4.923 3.588 1.451 1.429 2.657 3.1 3.596 4.913 0.934 1.847 1.541 3.758 1.885 5.797 0.375 2.015 0.493 4.054 0.566 6.093 0.011 0.946 0.011 1.862 0.011 2.807 0.024 1.106 0.024 2.205 0.024 3.329v65.295c0 1.114 0 2.22-0.024 3.323 0 0.933 0 1.87-0.011 2.803-0.073 2.039-0.191 4.078-0.566 6.094-0.344 2.039-0.951 3.941-1.885 5.793-0.939 1.823-2.145 3.493-3.596 4.935-1.439 1.442-3.104 2.655-4.923 3.588-1.872 0.942-3.769 1.552-5.808 1.908-2.004 0.363-4.048 0.488-6.088 0.538-0.927 0.015-1.878 0.033-2.806 0.039-1.094 6e-3 -2.205 6e-3 -3.3 6e-3" fill="#dfdfe1"/></g><g
            transform="matrix(.26484 0 0 .26484 124.8 408.79)" fill="#f8f8fa"><path d="m0 0c-0.927 0-1.833 0.012-2.752 0.033-1.702 0.047-3.721 0.143-5.69 0.496-1.858 0.336-3.509 0.883-5.043 1.668-1.587 0.805-3.014 1.846-4.252 3.094-1.261 1.237-2.297 2.658-3.107 4.251-0.789 1.537-1.328 3.187-1.653 5.045-0.371 2.048-0.466 4.126-0.506 5.707-0.019 0.643-0.045 2.779-0.045 2.779v71.906s0.027 2.104 0.045 2.723c0.04 1.594 0.135 3.671 0.503 5.698 0.326 1.869 0.866 3.517 1.655 5.059 0.808 1.597 1.846 3.025 3.09 4.256 1.259 1.26 2.692 2.304 4.269 3.112 1.563 0.794 3.212 1.337 5.032 1.656 2.05 0.367 4.127 0.459 5.709 0.499l2.746 0.038h359.73l2.779-0.039c1.561-0.039 3.639-0.131 5.658-0.495 1.834-0.321 3.492-0.866 5.086-1.668 1.56-0.799 2.99-1.843 4.235-3.091 1.246-1.237 2.289-2.672 3.115-4.275 0.785-1.556 1.32-3.204 1.63-5.019 0.353-1.92 0.463-3.892 0.528-5.745 9e-3 -0.862 9e-3 -1.788 9e-3 -2.709 0.025-1.142 0.025-2.228 0.025-3.323v-65.295c0-1.105 0-2.184-0.025-3.272 0-0.99 0-1.898-0.012-2.83-0.062-1.793-0.172-3.764-0.52-5.643-0.315-1.866-0.85-3.516-1.644-5.083-0.82-1.581-1.863-3.011-3.091-4.218-1.257-1.272-2.684-2.309-4.259-3.112-1.579-0.803-3.191-1.335-5.077-1.674-1.951-0.353-3.969-0.449-5.691-0.496-0.891-0.021-1.825-0.033-2.731-0.033l-3.3-6e-3z" fill="#f8f8fa" stroke-width="2.9368"/></g><g
            transform="matrix(.26484 0 0 .26484 86.747 324.02)" fill="#333"><g transform="translate(258.01,362.23)"><path d="m0 0h10.652l-3.815 10.209c-0.524 1.411-1.04 2.968-1.549 4.674-0.46-1.509-0.96-3.051-1.5-4.625zm12.471-4.847h-14.268l-3.493-9.545h-6.273l13.973 35.647h5.929l14.292-35.647h-6.592z" fill="#333"/></g>
        <g transform="translate(299.45,354.32)"><path d="m0 0c1.239 1.664 1.858 4.096 1.858 7.294 0 2.968-0.512 5.12-1.538 6.458-1.026 1.336-2.39 2.004-4.096 2.004-1.182 0-2.272-0.278-3.272-0.836-0.999-0.557-1.952-1.304-2.853-2.238v-14.22c0.605-0.295 1.311-0.529 2.115-0.701 0.803-0.172 1.599-0.258 2.388-0.258 2.361 0 4.16 0.833 5.398 2.497m-15.978 13.566c0 1.969-0.066 4.133-0.196 6.496h5.707c0.212-1.1 0.36-2.223 0.443-3.372 2.361 2.576 5.066 3.864 8.118 3.864 1.771 0 3.412-0.448 4.919-1.341 1.51-0.895 2.728-2.305 3.654-4.231 0.927-1.927 1.391-4.376 1.391-7.343 0-3.1-0.53-5.749-1.589-7.947-1.056-2.197-2.537-3.862-4.439-4.994-1.902-1.131-4.1-1.698-6.593-1.698-1.805 0-3.583 0.305-5.338 0.911v-10.972l-6.077-0.516z" fill="#333"/></g>
        <g transform="translate(327.37,354.32)"><path d="m0 0c1.238 1.664 1.857 4.096 1.857 7.294 0 2.968-0.512 5.12-1.538 6.458-1.026 1.336-2.389 2.004-4.095 2.004-1.182 0-2.273-0.278-3.273-0.836-0.999-0.557-1.952-1.304-2.852-2.238v-14.22c0.604-0.295 1.311-0.529 2.114-0.701 0.804-0.172 1.599-0.258 2.388-0.258 2.361 0 4.16 0.833 5.399 2.497m-15.979 13.566c0 1.969-0.066 4.133-0.196 6.496h5.707c0.212-1.1 0.36-2.223 0.443-3.372 2.362 2.576 5.067 3.864 8.119 3.864 1.77 0 3.411-0.448 4.919-1.341 1.509-0.895 2.727-2.305 3.654-4.231 0.927-1.927 1.391-4.376 1.391-7.343 0-3.1-0.531-5.749-1.589-7.947-1.057-2.197-2.537-3.862-4.44-4.994-1.902-1.131-4.099-1.698-6.592-1.698-1.805 0-3.584 0.305-5.338 0.911v-10.972l-6.078-0.516z" fill="#333"/></g>
        <g transform="translate(346.89,349.52)"><path d="m0 0c-2.625 1.451-4.642 3.53-6.053 6.235-1.41 2.706-2.114 5.905-2.114 9.595 0 4.001 0.812 7.401 2.435 10.197 1.625 2.796 3.834 4.896 6.63 6.297 2.794 1.403 5.931 2.104 9.41 2.104 2.049 0 4.005-0.226 5.866-0.677s3.596-1.069 5.205-1.856l-1.551-4.674c-3.231 1.541-6.315 2.311-9.249 2.311-2.476 0-4.646-0.528-6.508-1.586-1.861-1.057-3.308-2.612-4.342-4.663-1.032-2.05-1.55-4.525-1.55-7.429 0-2.541 0.398-4.796 1.194-6.764 0.795-1.968 2.05-3.528 3.764-4.675 1.714-1.148 3.875-1.722 6.481-1.722 1.182 0 2.363 0.098 3.543 0.295 1.182 0.197 2.288 0.485 3.32 0.862v7.208h-8.239v4.722h14.144v-15.006c-2.033-0.951-4.17-1.68-6.408-2.189-2.239-0.509-4.464-0.763-6.68-0.763-3.575 0-6.674 0.726-9.298 2.178" fill="#333"/></g>
        <g transform="translate(387.53,352.76)"><path d="m0 0c1.263 0.606 2.297 1.361 3.1 2.264v4.92c-1.658 0.18-3.009 0.27-4.059 0.27-2.51 0-4.244-0.406-5.203-1.218s-1.439-1.907-1.439-3.284c0-1.311 0.348-2.284 1.044-2.916 0.699-0.631 1.646-0.946 2.841-0.946 1.215 0 2.453 0.304 3.716 0.91m3.64-4.92c-0.212 1.033-0.352 2.205-0.416 3.518-0.936-1.117-2.154-2.063-3.656-2.841-1.499-0.779-3.192-1.169-5.079-1.169-1.525 0-2.915 0.3-4.17 0.897-1.255 0.6-2.25 1.501-2.989 2.707-0.738 1.205-1.106 2.677-1.106 4.415 0 2.576 0.926 4.629 2.78 6.164 1.853 1.533 4.943 2.3 9.273 2.3 1.625 0 3.232-0.116 4.823-0.345v0.517c0 2.345-0.5 3.997-1.501 4.956-1 0.959-2.435 1.441-4.305 1.441-1.295 0-2.681-0.19-4.158-0.568-1.475-0.377-2.773-0.827-3.887-1.352l-0.959 4.428c1.082 0.492 2.509 0.944 4.281 1.353 1.771 0.41 3.641 0.615 5.61 0.615 2.295 0 4.247-0.348 5.853-1.046 1.608-0.697 2.862-1.894 3.765-3.591 0.902-1.698 1.353-3.982 1.353-6.851v-10.554c0-1.098 0.065-2.764 0.197-4.994z" fill="#333"/></g>
        <g transform="translate(402,354.21)"><path d="m0 0v31.365l6.051 0.492v-30.776c0-1.131 0.192-1.93 0.578-2.397 0.385-0.468 0.996-0.702 1.834-0.702 0.376 0 0.91 0.09 1.599 0.271l0.713-4.355c-0.574-0.23-1.276-0.414-2.104-0.553-0.827-0.139-1.61-0.209-2.35-0.209-4.215 0-6.321 2.288-6.321 6.864" fill="#333"/></g>
        <g transform="translate(417.13,354.21)"><path d="m0 0v31.365l6.051 0.492v-30.776c0-1.131 0.192-1.93 0.578-2.397 0.385-0.468 0.996-0.702 1.834-0.702 0.376 0 0.91 0.09 1.599 0.271l0.713-4.355c-0.574-0.23-1.276-0.414-2.104-0.553-0.827-0.139-1.61-0.209-2.35-0.209-4.215 0-6.321 2.288-6.321 6.864" fill="#333"/></g>
        <g transform="translate(447.17,364.2)"><path d="m0 0c-0.113 2.115-0.647 3.703-1.599 4.76-0.951 1.058-2.221 1.587-3.812 1.587-1.542 0-2.824-0.533-3.851-1.599-1.023-1.066-1.693-2.649-2.005-4.748zm5.929-3.862h-17.367c0.279-5.56 2.927-8.34 7.946-8.34 1.246 0 2.521 0.151 3.826 0.455 1.304 0.304 2.554 0.709 3.752 1.219l1.327-4.16c-2.969-1.442-6.306-2.164-10.013-2.164-2.82 0-5.198 0.533-7.134 1.599-1.935 1.066-3.39 2.6-4.367 4.601-0.975 2-1.463 4.411-1.463 7.233 0 2.935 0.516 5.46 1.55 7.576 1.035 2.116 2.473 3.732 4.319 4.846 1.842 1.116 3.971 1.674 6.382 1.674 2.508 0 4.605-0.587 6.287-1.76 1.679-1.172 2.925-2.734 3.739-4.687 0.811-1.951 1.216-4.107 1.216-6.468z" fill="#333"/></g>
        <g transform="translate(457.99,367.71)"><path d="m0 0c0 1.46-0.067 3.682-0.196 6.668h5.681c0.1-0.739 0.193-1.62 0.284-2.646 0.089-1.025 0.152-1.857 0.184-2.497 0.704 1.165 1.399 2.145 2.078 2.94 0.68 0.795 1.478 1.444 2.388 1.943 0.908 0.501 1.946 0.751 3.11 0.751 0.935 0 1.739-0.097 2.412-0.295l-0.762-5.264c-0.591 0.179-1.247 0.27-1.97 0.27-1.426 0-2.673-0.365-3.739-1.095-1.067-0.729-2.205-1.931-3.418-3.604v-17.048h-6.052z" fill="#333"/></g>
        <g transform="translate(477.58,336.97)"><path d="m0 0c-0.887 0.156-1.615 0.332-2.189 0.529l1.106 4.428c0.409-0.115 0.927-0.225 1.55-0.332 0.623-0.106 1.214-0.16 1.77-0.16 2.69 0 4.707 1.731 6.053 5.191l0.393 0.984-9.79 26.766h6.517l4.922-14.958c0.803-2.558 1.319-4.518 1.55-5.88 0.459 1.92 0.999 3.838 1.623 5.757l4.994 15.081h6.125l-9.766-26.888c-0.919-2.543-1.91-4.593-2.976-6.151-1.067-1.558-2.325-2.715-3.777-3.469s-3.203-1.131-5.252-1.131c-1.018 0-1.967 0.077-2.853 0.233" fill="#333"/></g></g><g
            transform="matrix(.26484 0 0 .26484 140.07 434.81)"><path d="m0 0h-34.314c-16.165 0-22.077-5.913-22.077-22.077v-34.314c0-16.164 5.912-22.076 22.077-22.076h34.303c16.164 0 22.088 5.912 22.088 22.076v34.314c0 16.164-5.913 22.077-22.077 22.077" fill="#333" fill-rule="evenodd"/></g><g
            transform="matrix(.26484 0 0 .26484 134.2 422.75)"><path d="m0 0h3.147l-1.579 3.672zm-0.774-1.85-0.934-2.135h-2.125l4.519 10.253h1.837l4.501-10.253h-2.182l-0.922 2.135zm34.197-2.129h2.054v10.246h-2.054zm-8.175 4.403h3.786v1.868h-3.786v2.1h5.496v1.87h-7.549v-10.246h7.747v1.868h-5.694zm-8.161-1.211-2.329 7.056h-1.699l-2.329-7.056-2.267 7.051h-2.215l3.576-10.255h1.723l2.333 6.736 2.332-6.736h1.738l3.567 10.255h-2.159zm-24.056 1.183c0-1.668-0.828-2.559-2.332-2.559-1.512 0-2.345 0.916-2.345 2.63v5.795h-2.082v-5.866c0-2.886 1.603-4.541 4.399-4.541 2.822 0 4.44 1.686 4.44 4.625v5.788h-2.08zm-11.726 5.872h2.081v-10.259h-2.081v4.166h-4.7v-4.166h-2.082v10.259h2.082v-4.139h4.7z" fill="#fff"/></g><g
            transform="matrix(.26484 0 0 .26484 135.52 427.87)"><path d="m0 0c-7.202 0-13.062 5.859-13.062 13.061h1.846c0-6.185 5.031-11.216 11.216-11.216s11.216 5.031 11.216 11.216h1.845c0-7.202-5.859-13.061-13.061-13.061" fill="#fff"/></g><g
            transform="matrix(.26484 0 0 .26484 155.03 430.8)" fill="#333"><path d="m0 0c0.902 0.606 1.578 1.439 2.025 2.501 0.446 1.061 0.67 2.275 0.67 3.642 0 1.341-0.198 2.536-0.593 3.584-0.396 1.049-1.028 1.885-1.896 2.508-0.868 0.622-1.985 0.934-3.351 0.934-1.307 0-2.416-0.316-3.326-0.947-0.911-0.632-1.595-1.478-2.05-2.539-0.456-1.063-0.684-2.234-0.684-3.515 0-1.348 0.214-2.556 0.645-3.622 0.429-1.065 1.087-1.908 1.973-2.526 0.884-0.619 1.981-0.929 3.286-0.929 1.3 0 2.398 0.304 3.301 0.909m-8.354-2.288c-1.365 0.782-2.411 1.88-3.132 3.293-0.722 1.415-1.082 3.058-1.082 4.932 0 1.968 0.384 3.688 1.153 5.163 0.769 1.474 1.878 2.613 3.325 3.417 1.448 0.803 3.156 1.205 5.125 1.205 1.882 0 3.503-0.389 4.861-1.167 1.357-0.778 2.394-1.872 3.106-3.281 0.714-1.41 1.07-3.043 1.07-4.899 0-2.002-0.388-3.743-1.167-5.221-0.777-1.478-1.886-2.617-3.325-3.417-1.44-0.799-3.13-1.198-5.073-1.198-1.874 0-3.494 0.391-4.861 1.173" fill="#333"/></g><g
            transform="matrix(.26484 0 0 .26484 159.86 430.79)"><path d="m0 0c0.658 0.536 0.987 1.295 0.987 2.275 0 1.039-0.364 1.83-1.09 2.372-0.727 0.541-1.773 0.812-3.139 0.812h-2.165v-6.266h2.422c1.334 0 2.327 0.27 2.985 0.807m-5.407 7.844h2.01c0.671 0 1.262 0.134 1.772 0.4 0.512 0.266 0.905 0.625 1.18 1.076s0.413 0.948 0.413 1.49c0 0.764-0.278 1.336-0.832 1.714s-1.356 0.567-2.404 0.567h-2.139zm7.457-1.811c0.665-0.408 1.19-0.946 1.572-1.612s0.575-1.445 0.575-2.34c0-1.039-0.261-1.956-0.779-2.752-0.522-0.795-1.281-1.413-2.283-1.856-1.001-0.443-2.203-0.664-3.604-0.664h-6.084v18.667h5.827c1.977 0 3.458-0.383 4.448-1.147 0.987-0.766 1.481-1.814 1.481-3.146 0-1.108-0.315-2.035-0.947-2.778-0.631-0.743-1.459-1.265-2.481-1.567 0.85-0.128 1.609-0.397 2.275-0.805" fill="#333"/></g><g
            transform="matrix(.26484 0 0 .26484 86.747 324.02)" fill="#333"><g transform="translate(281.41,400)"><path d="m0 0 0.245 2.541c0.386-0.086 0.756-0.13 1.109-0.13 0.704 0 1.254 0.159 1.649 0.478 0.396 0.318 0.674 0.775 0.831 1.373 0.16 0.596 0.239 1.355 0.239 2.275v12.105h3.198v-12.298c0-2.132-0.434-3.757-1.302-4.874s-2.256-1.675-4.164-1.675c-0.638 0-1.239 0.068-1.805 0.205" fill="#333"/></g>
        <g transform="translate(296.62,407.51)"><path d="m0 0h5.581l-1.998 5.35c-0.275 0.74-0.546 1.555-0.813 2.449-0.241-0.791-0.502-1.598-0.785-2.423zm6.536-2.54h-7.477l-1.831-5.002h-3.289l7.324 18.68h3.106l7.49-18.68h-3.453z" fill="#333"/></g>
        <g transform="translate(307.64,418.64)"><path d="m0 0h3.533l4.77-13.072c0.087-0.249 0.194-0.593 0.322-1.031 0.129-0.439 0.232-0.834 0.31-1.187 0.3 1.04 0.53 1.78 0.683 2.218l4.666 13.072h3.277l-7.182-18.667h-3.197z" fill="#333"/></g>
        <path d="m327.58 418.64h3.224v-18.667h-3.224zm-0.708 1.393 3.362 3.957 3.392-0.308-4.745-3.933z"/>
        <g transform="translate(339.33,415.94)"><path d="m0 0h-5.787l0.283 2.694h14.529l-0.297-2.694h-5.504v-15.973h-3.224z" fill="#333"/></g>
        <g transform="translate(351.09,418.64)"><path d="m0 0h10.996l-0.308-2.655h-7.464v-5.143h7.038v-2.49h-7.038v-5.698h7.863l-0.272-2.681h-10.815z" fill="#333"/></g>
        <g transform="translate(371.62,418.64)"><path d="m0 0h3.533l4.77-13.072c0.087-0.249 0.193-0.593 0.321-1.031 0.13-0.439 0.232-0.834 0.31-1.187 0.301 1.04 0.53 1.78 0.683 2.218l4.667 13.072h3.276l-7.181-18.667h-3.197z" fill="#333"/></g></g></g></g></g></g></svg>
